{"title":"Ong Bak 2 (2008) BRRip 720P (Hindi) 5.1ch-nsh168810","uid":6618302,"size":1569347478,"categoryP":"video","categoryS":"hd___movies","magnet":"?xt=urn:btih:a5278abbe8ef7508b1a10786532895e392f101bc&amp;dn=Ong+Bak+2+%282008%29+BRRip+720P+%28Hindi%29+5.1ch-nsh168810&amp;tr=udp%3A%2F%2Ftracker.openbittorrent.com%3A80&amp;tr=udp%3A%2F%2Fopen.demonii.com%3A1337&amp;tr=udp%3A%2F%2Ftracker.coppersurfer.tk%3A6969&amp;tr=udp%3A%2F%2Fexodus.desync.com%3A6969","seeders":0,"leechers":0,"uploader":"nsh168810","files":11,"time":1313878892,"description":"General\nComplete name                    : Ong Bak 2 (2008) BRRip 720P (Hindi)\nFormat                           : Matroska\nFile size                        : 1.44 GiB\nDuration                         : 1h 32mn\nOverall bit rate                 : 2 238 Kbps\n\nVideo\nID                               : 1\nFormat                           : AVC\nFormat/Info                      : Advanced Video Codec\nFormat profile                   : &lt;a class=&quot;__cf_email__&quot; href=&quot;/cdn-cgi/l/email-protection&quot; data-cfemail=&quot;80c8e9e7e8c0ccb4aeb1&quot;&gt;[email&amp;#160;protected]&lt;/a&gt;&lt;script cf-hash='f9e31' type=&quot;text/javascript&quot;&gt;\n/* &lt;![CDATA[ */!function(){try{var t=&quot;currentScript&quot;in document?document.currentScript:function(){for(var t=document.getElementsByTagName(&quot;script&quot;),e=t.length;e--;)if(t[e].getAttribute(&quot;cf-hash&quot;))return t[e]}();if(t&amp;&amp;t.previousSibling){var e,r,n,i,c=t.previousSibling,a=c.getAttribute(&quot;data-cfemail&quot;);if(a){for(e=&quot;&quot;,r=parseInt(a.substr(0,2),16),n=2;a.length-n;n+=2)i=parseInt(a.substr(n,2),16)^r,e+=String.fromCharCode(i);e=document.createTextNode(e),c.parentNode.replaceChild(e,c)}}}catch(u){}}();/* ]]&gt; */&lt;/script&gt;\nFormat settings, CABAC           : Yes\nFormat settings, ReFrames        : 4 frames\nMuxing mode                      : Header stripping\nCodec ID                         : V_MPEG4/ISO/AVC\nDuration                         : 1h 32mn\nBit rate                         : 1 938 Kbps\nNominal bit rate                 : 1 813 Kbps\nWidth                            : 1 280 pixels\nHeight                           : 544 pixels\nDisplay aspect ratio             : 2.35:1\nFrame rate                       : 25.000 fps\nColor space                      : YUV\nChroma subsampling               : 4:2:0\nBit depth                        : 8 bits\nScan type                        : Progressive\nBits/(Pixel*Frame)               : 0.111\nStream size                      : 1.25 GiB (87%)\n\nAudio\nID                               : 2\nFormat                           : AC-3\nFormat/Info                      : Audio Coding 3\nMode extension                   : CM (complete main)\nMuxing mode                      : Header stripping\nCodec ID                         : A_AC3\nDuration                         : 1h 32mn\nBit rate mode                    : Constant\nBit rate                         : 256 Kbps\nChannel(s)                       : 6 channels\nChannel positions                : Front: L C R, Side: L R, LFE\nSampling rate                    : 48.0 KHz\nBit depth                        : 16 bits\nCompression mode                 : Lossy\nStream size                      : 168 MiB (11%)\nTitle                            : nsh168810 - 5.1ch\nLanguage                         : Hindi\n\n\n\nScreenshots :\n &lt;a href=&quot;\nhttp://img29.imageshack.us/img29/9591/33800630.jpg&quot; rel=&quot;nofollow&quot; target=&quot;_NEW&quot;&gt;\nhttp://img29.imageshack.us/img29/9591/33800630.jpg&lt;/a&gt; &lt;a href=&quot;\nhttp://img832.imageshack.us/img832/1223/49010686.jpg&quot; rel=&quot;nofollow&quot; target=&quot;_NEW&quot;&gt;\nhttp://img832.imageshack.us/img832/1223/49010686.jpg&lt;/a&gt; &lt;a href=&quot;\nhttp://img14.imageshack.us/img14/5651/76358292.jpg&quot; rel=&quot;nofollow&quot; target=&quot;_NEW&quot;&gt;\nhttp://img14.imageshack.us/img14/5651/76358292.jpg&lt;/a&gt; &lt;a href=&quot;\nhttp://img687.imageshack.us/img687/2715/57368484.jpg&quot; rel=&quot;nofollow&quot; target=&quot;_NEW&quot;&gt;\nhttp://img687.imageshack.us/img687/2715/57368484.jpg&lt;/a&gt; &lt;a href=&quot;\nhttp://img220.imageshack.us/img220/9205/14649883.jpg&quot; rel=&quot;nofollow&quot; target=&quot;_NEW&quot;&gt;\nhttp://img220.imageshack.us/img220/9205/14649883.jpg&lt;/a&gt; &lt;a href=&quot;\nhttp://img9.imageshack.us/img9/7656/58093606.jpg&quot; rel=&quot;nofollow&quot; target=&quot;_NEW&quot;&gt;\nhttp://img9.imageshack.us/img9/7656/58093606.jpg&lt;/a&gt; &lt;a href=&quot;\nhttp://img24.imageshack.us/img24/9353/54736853.jpg&quot; rel=&quot;nofollow&quot; target=&quot;_NEW&quot;&gt;\nhttp://img24.imageshack.us/img24/9353/54736853.jpg&lt;/a&gt;\n\n\nSAMPLE &amp; SCREENSHOTS INCLUDED.","torrent":{"xt":"urn:btih:a5278abbe8ef7508b1a10786532895e392f101bc","amp;dn":"Ong+Bak+2+%282008%29+BRRip+720P+%28Hindi%29+5.1ch-nsh168810","amp;tr":["udp%3A%2F%2Ftracker.openbittorrent.com%3A80","udp%3A%2F%2Fopen.demonii.com%3A1337","udp%3A%2F%2Ftracker.coppersurfer.tk%3A6969","udp%3A%2F%2Fexodus.desync.com%3A6969"],"infoHash":"a5278abbe8ef7508b1a10786532895e392f101bc","infoHashBuffer":{"type":"Buffer","data":[165,39,138,187,232,239,117,8,177,161,7,134,83,40,149,227,146,241,1,188]},"announce":[],"urlList":[]}}